<?xml version="1.0" encoding="utf-8"?>
<!-- Generator: Adobe Illustrator 15.0.0, SVG Export Plug-In . SVG Version: 6.00 Build 0)  -->
<!DOCTYPE svg PUBLIC "-//W3C//DTD SVG 1.1//EN" "http://www.w3.org/Graphics/SVG/1.1/DTD/svg11.dtd">
<svg version="1.1" id="Layer_1" xmlns="http://www.w3.org/2000/svg" xmlns:xlink="http://www.w3.org/1999/xlink" x="0px" y="0px"
	 width="18px" height="24px" viewBox="0 0 18 24" enable-background="new 0 0 18 24" xml:space="preserve">
<g>
	
		<image overflow="visible" opacity="0.75" width="70" height="68" xlink:href="DFA46A90.png"  transform="matrix(1 0 0 1 -95.5 -11.7651)">
	</image>
	<g>
		<g>
			<path fill="#FFFFFF" stroke="#000000" stroke-miterlimit="10" d="M-34.772,21.065l-12.315-4.537
				c-1.957-6.625-8.078-11.463-15.337-11.463c-8.837,0-16,7.163-16,16c0,8.836,7.163,16,16,16c7.259,0,13.38-4.838,15.337-11.463
				L-34.772,21.065z"/>
			<circle fill="#4D4D4D" stroke="#000000" stroke-miterlimit="10" cx="-62.425" cy="21.065" r="5.231"/>
		</g>
	</g>
</g>
<text transform="matrix(1 0 0 1 -125 63.7349)" font-family="'MyriadPro-Regular'" font-size="12">A Simple Character Object</text>
<g>
	
		<image overflow="visible" opacity="0.75" width="24" height="31" xlink:href="DFA46A91.png"  transform="matrix(1 0 0 1 -1.625 -2.2441)">
	</image>
	<g>
		<g>
			<polygon fill="#FF0000" stroke="#000000" stroke-miterlimit="10" points="11.958,21.049 7.042,21.049 9.5,16.466 			"/>
			<radialGradient id="SVGID_1_" cx="8.542" cy="8.9229" r="5.7037" gradientUnits="userSpaceOnUse">
				<stop  offset="0" style="stop-color:#FFFFFF"/>
				<stop  offset="1" style="stop-color:#FF0000"/>
			</radialGradient>
			<ellipse fill="url(#SVGID_1_)" stroke="#000000" stroke-miterlimit="10" cx="9.5" cy="10.921" rx="5" ry="7.5"/>
		</g>
	</g>
</g>
<text transform="matrix(1 0 0 1 -8.875 37.0649)" font-family="'MyriadPro-Regular'" font-size="12">Water Balloon</text>
</svg>
